<?xml version="1.0" encoding="UTF-8"?>
<svg xmlns="http://www.w3.org/2000/svg" width="440" height="280" viewBox="0 0 440 280">
  <rect width="440" height="280" rx="0" fill="#ffffff"/>
  <rect x="24" y="24" width="392" height="232" rx="20" fill="#f6f8fa" stroke="#d0d7de"/>
  <rect x="56" y="64" width="220" height="52" rx="10" fill="#eff6ff" stroke="#c8d7e6" stroke-width="2"/>
  <circle cx="86" cy="90" r="8" fill="#2da44e"/>
  <text x="108" y="99" font-family="-apple-system,BlinkMacSystemFont,Segoe UI,sans-serif" font-size="24" font-weight="700" fill="#24292f">GitHub Pages</text>
  <rect x="288" y="64" width="52" height="52" rx="10" fill="#ffffff" stroke="#c8d7e6" stroke-width="2"/>
  <path d="M302 88c0-4 3-7 7-7h7v6h-7c-.6 0-1 .4-1 1v20c0 .6.4 1 1 1h20c.6 0 1-.4 1-1v-7h6v7c0 4-3 7-7 7h-20c-4 0-7-3-7-7zm20-20c0-4 3-7 7-7h20c4 0 7 3 7 7v20c0 4-3 7-7 7h-20c-4 0-7-3-7-7zm7-1c-.6 0-1 .4-1 1v20c0 .6.4 1 1 1h20c.6 0 1-.4 1-1V68c0-.6-.4-1-1-1z" fill="#24292f" transform="translate(-12 14)"/>
  <text x="56" y="166" font-family="-apple-system,BlinkMacSystemFont,Segoe UI,sans-serif" font-size="28" font-weight="800" fill="#24292f">Detect GitHub Pages</text>
  <text x="56" y="202" font-family="-apple-system,BlinkMacSystemFont,Segoe UI,sans-serif" font-size="18" fill="#57606a">Open and copy repository Pages URLs.</text>
</svg>